<svg width="820" height="750" viewBox="0 0 820 750" fill="none" xmlns="http://www.w3.org/2000/svg">
<path d="M230.565 191.512L330.862 91.2159L510.107 91.2158L610.403 191.512L610.403 357.205L510.106 457.502L330.862 457.502L230.565 357.206L230.565 191.512Z" fill="black" stroke="white" stroke-width="10"/>
<path d="M292.091 544.999L227.593 694.999H602.252L534.427 544.999H292.091Z" fill="black" stroke="white" stroke-width="10"/>
<rect x="185" y="454.999" width="460" height="90" fill="black" stroke="white" stroke-width="10"/>
<path d="M590 549.999L725 739.999" stroke="white" stroke-width="10"/>
<mask id="path-5-inside-1_686_15" fill="white">
<path d="M690 729.999H805L820 749.999H680L690 729.999Z"/>
</mask>
<path d="M690 729.999H805L820 749.999H680L690 729.999Z" fill="black"/>
<path d="M690 729.999V679.999H659.098L645.279 707.638L690 729.999ZM805 729.999L845 699.999L830 679.999H805V729.999ZM820 749.999V799.999H920L860 719.999L820 749.999ZM680 749.999L635.279 727.638L599.098 799.999H680V749.999ZM690 779.999H805V679.999H690V779.999ZM765 759.999L780 779.999L860 719.999L845 699.999L765 759.999ZM820 699.999H680V799.999H820V699.999ZM724.721 772.359L734.721 752.359L645.279 707.638L635.279 727.638L724.721 772.359Z" fill="white" mask="url(#path-5-inside-1_686_15)"/>
<path d="M230 549.999L95 739.999" stroke="white" stroke-width="10"/>
<mask id="path-8-inside-2_686_15" fill="white">
<path d="M130 729.999H15L0 749.999H140L130 729.999Z"/>
</mask>
<path d="M130 729.999H15L0 749.999H140L130 729.999Z" fill="black"/>
<path d="M130 729.999V679.999H160.902L174.721 707.638L130 729.999ZM15 729.999L-25 699.999L-9.99999 679.999H15V729.999ZM0 749.999V799.999H-100L-40 719.999L0 749.999ZM140 749.999L184.721 727.638L220.902 799.999H140V749.999ZM130 779.999H15V679.999H130V779.999ZM55 759.999L40 779.999L-40 719.999L-25 699.999L55 759.999ZM0 699.999H140V799.999H0V699.999ZM95.2786 772.359L85.2786 752.359L174.721 707.638L184.721 727.638L95.2786 772.359Z" fill="white" mask="url(#path-8-inside-2_686_15)"/>
</svg>
